<svg xmlns="http://www.w3.org/2000/svg" xmlns:svg="http://www.w3.org/2000/svg" xmlns:xlink="http://www.w3.org/1999/xlink" version="1.0" height="915pt" width="1190pt" viewBox="235 182 1198 921" ><defs><style type="text/css">
            @font-face {
                font-family: 'noto_regular';
                src: url('https://app.creately.com/diagram/assets/fonts/noto/noto-regular.woff') format('woff'),
                     url('https://app.creately.com/diagram/assets/fonts/noto/noto-regular.woff2') format('woff2');
                font-weight: normal;
                font-style: normal;
            }
        p {
            margin: 0;
        }
        </style></defs><defs><style>
            span{ display: inline-block; }
        </style></defs><g id="1jegm7e3rm"><g transform="translate(470 920)"><rect x="0" y="0" width="100" height="50" fill="rgba(255,255,255,1)" stroke="#75c19b" stroke-width="1.5" stroke-linecap="round" stroke-linejoin="round"/></g><g transform="translate(488.5, 935.5) rotate(0, 31.5, 9.5)" width="63" height="19"><text text-decoration="none" x="2" fill="rgb(75, 75, 75)" font-size="10pt" font-family="Lato"  y="17">Customer</text><text text-decoration="none" x="61" fill="#4b4b4b" font-size="10pt" font-family="noto_regular"  y="17"></text></g></g><g id="2qls2z32sv"><g transform="translate(325 920)"><ellipse cx="50" cy="25" rx="50" ry="25" fill="rgba(255,255,255,1)" stroke="#f6902a" stroke-width="1.5" stroke-linecap="round" stroke-linejoin="round"/></g><g transform="translate(361, 935.5) rotate(0, 14, 9.5)" width="28" height="19"><text text-decoration="underline" x="1.5" fill="rgb(75, 75, 75)" font-size="10pt" font-family="Lato"  y="17">C_id</text><text text-decoration="none" x="26.5" fill="#4b4b4b" font-size="10pt" font-family="noto_regular"  y="17"></text></g></g><g id="2o1ragpx0o"><g transform="translate(410 1030)"><ellipse cx="50" cy="25" rx="50" ry="25" fill="rgba(255,255,255,1)" stroke="#f6902a" stroke-width="1.5" stroke-linecap="round" stroke-linejoin="round"/></g><g transform="translate(433.5, 1045.5) rotate(0, 26.5, 9.5)" width="53" height="19"><text text-decoration="none" x="2.5" fill="rgb(75, 75, 75)" font-size="10pt" font-family="Lato"  y="17">C_name</text><text text-decoration="none" x="50.5" fill="#4b4b4b" font-size="10pt" font-family="noto_regular"  y="17"></text></g></g><g id="2gsdwe7nf1"><g transform="translate(595 1050)"><ellipse cx="50" cy="25" rx="50" ry="25" fill="rgba(255,255,255,1)" stroke="#f6902a" stroke-width="1.5" stroke-linecap="round" stroke-linejoin="round"/></g><g transform="translate(617, 1065.5) rotate(0, 28, 9.5)" width="56" height="19"><text text-decoration="none" x="1.5" fill="rgb(75, 75, 75)" font-size="10pt" font-family="Lato"  y="17">C_phone</text><text text-decoration="none" x="54.5" fill="#4b4b4b" font-size="10pt" font-family="noto_regular"  y="17"></text></g></g><g id="674za0bvrz"><g transform="translate(735 1015)"><ellipse cx="50" cy="25" rx="50" ry="25" fill="rgba(255,255,255,1)" stroke="#f6902a" stroke-width="1.5" stroke-linecap="round" stroke-linejoin="round"/></g><g transform="translate(758.5, 1030.5) rotate(0, 26.5, 9.5)" width="53" height="19"><text text-decoration="none" x="3.5" fill="rgb(75, 75, 75)" font-size="10pt" font-family="Lato"  y="17">C_email</text><text text-decoration="none" x="49.5" fill="#4b4b4b" font-size="10pt" font-family="noto_regular"  y="17"></text></g></g><g id="1tifkz4dk1"><g transform="translate(755 955)"><ellipse cx="50" cy="25" rx="50" ry="25" fill="rgba(255,255,255,1)" stroke="#f6902a" stroke-width="1.5" stroke-linecap="round" stroke-linejoin="round"/></g><g transform="translate(771.5, 970.5) rotate(0, 33.5, 9.5)" width="67" height="19"><text text-decoration="none" x="3" fill="rgb(75, 75, 75)" font-size="10pt" font-family="Lato"  y="17">C_address</text><text text-decoration="none" x="64" fill="#4b4b4b" font-size="10pt" font-family="noto_regular"  y="17"></text></g></g><g id="22aido28zr"><g><path d="M 470,945 L 425,945" fill="none" stroke="#a0a0a0" stroke-width="1.5" stroke-linecap="round" stroke-linejoin="round"/></g></g><g id="1jqw9s0lht"><g><path d="M 520,970 L 475,1030" fill="none" stroke="#a0a0a0" stroke-width="1.5" stroke-linecap="round" stroke-linejoin="round"/></g></g><g id="2c8equ93bh"><g><path d="M 520,970 L 630,1050" fill="none" stroke="#a0a0a0" stroke-width="1.5" stroke-linecap="round" stroke-linejoin="round"/></g></g><g id="1rq691t8hn"><g><path d="M 570,945 L 735,1040" fill="none" stroke="#a0a0a0" stroke-width="1.5" stroke-linecap="round" stroke-linejoin="round"/></g></g><g id="23oci2964q"><g><path d="M 570,945 L 755,980" fill="none" stroke="#a0a0a0" stroke-width="1.5" stroke-linecap="round" stroke-linejoin="round"/></g></g><g id="1vywgdkvsb"><g transform="translate(405 585)"><rect x="0" y="0" width="100" height="50" fill="rgba(255,255,255,1)" stroke="#75c19b" stroke-width="1.5" stroke-linecap="round" stroke-linejoin="round"/></g><g transform="translate(424.5, 600.5) rotate(0, 30.5, 9.5)" width="61" height="19"><text text-decoration="none" x="2" fill="rgb(75, 75, 75)" font-size="10pt" font-family="Lato"  y="17">Feedback</text><text text-decoration="none" x="59" fill="#4b4b4b" font-size="10pt" font-family="noto_regular"  y="17"></text></g></g><g id="19wgvhweq1"><g transform="translate(240 600)"><ellipse cx="50" cy="25" rx="50" ry="25" fill="rgba(255,255,255,1)" stroke="#f6902a" stroke-width="1.5" stroke-linecap="round" stroke-linejoin="round"/></g><g transform="translate(277, 615.5) rotate(0, 13, 9.5)" width="26" height="19"><text text-decoration="underline" x="1" fill="rgb(75, 75, 75)" font-size="10pt" font-family="Lato"  y="17">F_id</text><text text-decoration="none" x="25" fill="#4b4b4b" font-size="10pt" font-family="noto_regular"  y="17"></text></g></g><g id="bpi6x1rosg"><g transform="translate(325 705)"><ellipse cx="50" cy="25" rx="50" ry="25" fill="rgba(255,255,255,1)" stroke="#f6902a" stroke-width="1.5" stroke-linecap="round" stroke-linejoin="round"/></g><g transform="translate(338, 720.5) rotate(0, 37, 9.5)" width="74" height="19"><text text-decoration="none" x="3.5" fill="rgb(75, 75, 75)" font-size="10pt" font-family="Lato"  y="17">F_feedback</text><text text-decoration="none" x="70.5" fill="#4b4b4b" font-size="10pt" font-family="noto_regular"  y="17"></text></g></g><g id="23uh6fwa4n"><g transform="translate(575 720)"><ellipse cx="50" cy="25" rx="50" ry="25" fill="rgba(255,255,255,1)" stroke="#f6902a" stroke-width="1.5" stroke-linecap="round" stroke-linejoin="round"/></g><g transform="translate(597.5, 735.5) rotate(0, 27.5, 9.5)" width="55" height="19"><text text-decoration="none" x="2.5" fill="rgb(75, 75, 75)" font-size="10pt" font-family="Lato"  y="17">F_movie</text><text text-decoration="none" x="52.5" fill="#4b4b4b" font-size="10pt" font-family="noto_regular"  y="17"></text></g></g><g id="6k8kt78ti5"><g transform="translate(570 595)"><ellipse cx="50" cy="25" rx="50" ry="25" fill="rgba(255,255,255,1)" stroke="#f6902a" stroke-width="1.5" stroke-linecap="round" stroke-linejoin="round"/></g><g transform="translate(591, 610.5) rotate(0, 29, 9.5)" width="58" height="19"><text text-decoration="none" x="1.5" fill="rgb(75, 75, 75)" font-size="10pt" font-family="Lato"  y="17">F_person</text><text text-decoration="none" x="56.5" fill="#4b4b4b" font-size="10pt" font-family="noto_regular"  y="17"></text></g></g><g id="2iv2m9rf32"><g><path d="M 405,610 L 340,625" fill="none" stroke="#a0a0a0" stroke-width="1.5" stroke-linecap="round" stroke-linejoin="round"/></g></g><g id="ybhgls5ryn"><g><path d="M 455,635 L 375,705" fill="none" stroke="#a0a0a0" stroke-width="1.5" stroke-linecap="round" stroke-linejoin="round"/></g></g><g id="4cgvksyt5t"><g><path d="M 505,610 L 595,725" fill="none" stroke="#a0a0a0" stroke-width="1.5" stroke-linecap="round" stroke-linejoin="round"/></g></g><g id="13in4vfpb1"><g><path d="M 505,610 L 570,620" fill="none" stroke="#a0a0a0" stroke-width="1.5" stroke-linecap="round" stroke-linejoin="round"/></g></g><g id="7k0d6ehamr"><g transform="translate(1095 710)"><rect x="0" y="0" width="100" height="50" fill="rgba(255,255,255,1)" stroke="#75c19b" stroke-width="1.5" stroke-linecap="round" stroke-linejoin="round"/></g><g transform="translate(1116.5, 725.5) rotate(0, 28.5, 9.5)" width="57" height="19"><text text-decoration="none" x="1.5" fill="rgb(75, 75, 75)" font-size="10pt" font-family="Lato"  y="17">Payment</text><text text-decoration="none" x="55.5" fill="#4b4b4b" font-size="10pt" font-family="noto_regular"  y="17"></text></g></g><g id="9csvfo9h30"><g transform="translate(945 660)"><ellipse cx="50" cy="25" rx="50" ry="25" fill="rgba(255,255,255,1)" stroke="#f6902a" stroke-width="1.5" stroke-linecap="round" stroke-linejoin="round"/></g><g transform="translate(981.5, 675.5) rotate(0, 13.5, 9.5)" width="27" height="19"><text text-decoration="underline" x="1" fill="rgb(75, 75, 75)" font-size="10pt" font-family="Lato"  y="17">P_id</text><text text-decoration="none" x="26" fill="#4b4b4b" font-size="10pt" font-family="noto_regular"  y="17"></text></g></g><g id="p7xa45a1wq"><g transform="translate(995 790)"><ellipse cx="50" cy="27.500000596046448" rx="50" ry="27.500000596046448" fill="rgba(255,255,255,1)" stroke="#f6902a" stroke-width="1.5" stroke-linecap="round" stroke-linejoin="round"/></g><g transform="translate(1015.5, 808.0000005960464) rotate(0, 29.5, 9.5)" width="59" height="19"><text text-decoration="none" x="1.5" fill="rgb(75, 75, 75)" font-size="10pt" font-family="Lato"  y="17">P_person</text><text text-decoration="none" x="57.5" fill="#4b4b4b" font-size="10pt" font-family="noto_regular"  y="17"></text></g></g><g id="4be4m32gwu"><g transform="translate(1250 855)"><ellipse cx="50" cy="25" rx="50" ry="25" fill="rgba(255,255,255,1)" stroke="#f6902a" stroke-width="1.5" stroke-linecap="round" stroke-linejoin="round"/></g><g transform="translate(1278, 870.5) rotate(0, 22, 9.5)" width="44" height="19"><text text-decoration="none" x="2.5" fill="rgb(75, 75, 75)" font-size="10pt" font-family="Lato"  y="17">P_mail</text><text text-decoration="none" x="41.5" fill="#4b4b4b" font-size="10pt" font-family="noto_regular"  y="17"></text></g></g><g id="4dcueofkme"><g transform="translate(1240 610)"><ellipse cx="50" cy="25" rx="50" ry="25" fill="rgba(255,255,255,1)" stroke="#f6902a" stroke-width="1.5" stroke-linecap="round" stroke-linejoin="round"/></g><g transform="translate(1257.5, 625.5) rotate(0, 32.5, 9.5)" width="65" height="19"><text text-decoration="none" x="1.5" fill="rgb(75, 75, 75)" font-size="10pt" font-family="Lato"  y="17">P_amount</text><text text-decoration="none" x="63.5" fill="#4b4b4b" font-size="10pt" font-family="noto_regular"  y="17"></text></g></g><g id="24i238mm8c"><g><path d="M 1095,735 L 1045,685" fill="none" stroke="#a0a0a0" stroke-width="1.5" stroke-linecap="round" stroke-linejoin="round"/></g></g><g id="1e3uv5nz9e"><g><path d="M 1145,760 L 1045,790" fill="none" stroke="#a0a0a0" stroke-width="1.5" stroke-linecap="round" stroke-linejoin="round"/></g></g><g id="2iir6wvbqx"><g><path d="M 1195,735 L 1270,860" fill="none" stroke="#a0a0a0" stroke-width="1.5" stroke-linecap="round" stroke-linejoin="round"/></g></g><g id="33gtbpoiqq"><g><path d="M 1195,735 L 1260,655" fill="none" stroke="#a0a0a0" stroke-width="1.5" stroke-linecap="round" stroke-linejoin="round"/></g></g><g id="3mupp17w43"><g transform="translate(440 785)"><path d="M 170.0011444091797,40.00027298927307 L 85.00057220458984,80.00054597854614 L 0,40.00027298927307 L 85.00057220458984,0 L 170.0011444091797,40.00027298927307 L 170.0011444091797,40.00027298927307 Z" fill="rgba(255,255,255,1)" stroke="#75c19b" stroke-width="1.5" stroke-linecap="round" stroke-linejoin="round"/></g><g transform="translate(459.50057220458984, 815.5002729892731) rotate(0, 65.5, 9.5)" width="131" height="19"><text text-decoration="none" x="4.5" fill="rgb(75, 75, 75)" font-size="10pt" font-family="Lato"  y="17">Customer_Feedback</text><text text-decoration="none" x="126.5" fill="#4b4b4b" font-size="10pt" font-family="noto_regular"  y="17"></text></g></g><g id="57n0sj1n9p"><mask id="95492" x="442" y="622" width="96" height="176" maskUnits="userSpaceOnUse"><rect x="442" y="622" width="96" height="176" fill="white" /><rect x="477.5731707317073" y="697.5" width="16" height="25" fill="black" /></mask><g mask="url(#95492)"><path d="M 525,785 L 525,710 L 490,710 L 455,710 L 455,635" fill="none" stroke="#a0a0a0" stroke-width="1.5" stroke-linecap="round" stroke-linejoin="round"/></g><g transform="translate(480.5731707317073, 700.5)" width="10" height="19"><text text-decoration="none" x="0" fill="rgb(75, 75, 75)" font-weight="bold" font-size="9pt" font-family="Arial"  y="17">N</text><text text-decoration="none" x="10" fill="#4b4b4b" font-size="10pt" font-family="noto_regular"  y="17"></text></g></g><g id="16o7bigaqh"><g transform="translate(950 910)"><path d="M 170.0011444091797,35.000234842300415 L 85.00057220458984,70.00046968460083 L 0,35.000234842300415 L 85.00057220458984,0 L 170.0011444091797,35.000234842300415 L 170.0011444091797,35.000234842300415 Z" fill="rgba(255,255,255,1)" stroke="#75c19b" stroke-width="1.5" stroke-linecap="round" stroke-linejoin="round"/></g><g transform="translate(971.5005722045898, 935.5002348423004) rotate(0, 63.5, 9.5)" width="127" height="19"><text text-decoration="none" x="4" fill="rgb(75, 75, 75)" font-size="10pt" font-family="Lato"  y="17">Customer_Payment</text><text text-decoration="none" x="123" fill="#4b4b4b" font-size="10pt" font-family="noto_regular"  y="17"></text></g></g><g id="o7vxv401zm"><mask id="324b7" x="1107" y="747" width="51" height="211" maskUnits="userSpaceOnUse"><rect x="1107" y="747" width="51" height="211" fill="white" /><rect x="1132" y="847.5" width="16" height="25" fill="black" /></mask><g mask="url(#324b7)"><path d="M 1145,760 L 1145,835 L 1142.5,835 L 1140,835 L 1140,890 L 1140,945 L 1120,945" fill="none" stroke="#a0a0a0" stroke-width="1.5" stroke-linecap="round" stroke-linejoin="round"/></g><g transform="translate(1135, 850.5)" width="10" height="19"><text text-decoration="none" x="0" fill="rgb(75, 75, 75)" font-weight="bold" font-size="9pt" font-family="Arial"  y="17">N</text><text text-decoration="none" x="10" fill="#4b4b4b" font-size="10pt" font-family="noto_regular"  y="17"></text></g></g><g id="7xzc1sgrid"><mask id="48e80" x="557" y="932" width="406" height="26" maskUnits="userSpaceOnUse"><rect x="557" y="932" width="406" height="26" fill="white" /><rect x="752" y="932.5" width="16" height="25" fill="black" /></mask><g mask="url(#48e80)"><path d="M 950,945 L 570,945" fill="none" stroke="#a0a0a0" stroke-width="1.5" stroke-linecap="round" stroke-linejoin="round"/></g><g transform="translate(755, 935.5)" width="10" height="19"><text text-decoration="none" x="0" fill="rgb(75, 75, 75)" font-weight="bold" font-size="9pt" font-family="Arial"  y="17">N</text><text text-decoration="none" x="10" fill="#4b4b4b" font-size="10pt" font-family="noto_regular"  y="17"></text></g></g><g id="1yyri8x82f"><mask id="727de" x="507" y="852" width="31" height="81" maskUnits="userSpaceOnUse"><rect x="507" y="852" width="31" height="81" fill="white" /><rect x="512" y="877.5" width="16" height="25" fill="black" /></mask><g mask="url(#727de)"><path d="M 525,865 L 525,880 L 522.5,880 L 520,880 L 520,920" fill="none" stroke="#a0a0a0" stroke-width="1.5" stroke-linecap="round" stroke-linejoin="round"/></g><g transform="translate(515, 880.5)" width="10" height="19"><text text-decoration="none" x="0" fill="rgb(75, 75, 75)" font-weight="bold" font-size="9pt" font-family="Arial"  y="17">N</text><text text-decoration="none" x="10" fill="#4b4b4b" font-size="10pt" font-family="noto_regular"  y="17"></text></g></g><g id="297h8z2gpi"><g transform="translate(530 270)"><rect x="0" y="0" width="100" height="50" fill="rgba(255,255,255,1)" stroke="#75c19b" stroke-width="1.5" stroke-linecap="round" stroke-linejoin="round"/></g><g transform="translate(557, 285.5) rotate(0, 23, 9.5)" width="46" height="19"><text text-decoration="none" x="1.5" fill="rgb(75, 75, 75)" font-size="10pt" font-family="Lato"  y="17">Movies</text><text text-decoration="none" x="44.5" fill="#4b4b4b" font-size="10pt" font-family="noto_regular"  y="17"></text></g></g><g id="118uvh3b1v"><g transform="translate(455 395)"><ellipse cx="50" cy="25" rx="50" ry="25" fill="rgba(255,255,255,1)" stroke="#f6902a" stroke-width="1.5" stroke-linecap="round" stroke-linejoin="round"/></g><g transform="translate(477.5, 410.5) rotate(0, 27.5, 9.5)" width="55" height="19"><text text-decoration="underline" x="1.5" fill="rgb(75, 75, 75)" font-size="10pt" font-family="Lato"  y="17">M_name</text><text text-decoration="none" x="53.5" fill="#4b4b4b" font-size="10pt" font-family="noto_regular"  y="17"></text></g></g><g id="29q6xqcpvg"><g transform="translate(315 310)"><ellipse cx="50" cy="25" rx="50" ry="25" fill="rgba(255,255,255,1)" stroke="#f6902a" stroke-width="1.5" stroke-linecap="round" stroke-linejoin="round"/></g><g transform="translate(332, 325.5) rotate(0, 33, 9.5)" width="66" height="19"><text text-decoration="none" x="3" fill="rgb(75, 75, 75)" font-size="10pt" font-family="Lato"  y="17">M_release</text><text text-decoration="none" x="63" fill="#4b4b4b" font-size="10pt" font-family="noto_regular"  y="17"></text></g></g><g id="8e8rabymj7"><g transform="translate(440 185)"><ellipse cx="50" cy="25" rx="50" ry="25" fill="rgba(255,255,255,1)" stroke="#f6902a" stroke-width="1.5" stroke-linecap="round" stroke-linejoin="round"/><ellipse cx="50" cy="25" rx="45" ry="20" fill="rgba(255,255,255,1)" stroke="#f6902a" stroke-width="1.5" stroke-linecap="round" stroke-linejoin="round"/></g><g transform="translate(469, 200.5) rotate(0, 21, 9.5)" width="42" height="19"><text text-decoration="none" x="1.5" fill="rgb(75, 75, 75)" font-size="10pt" font-family="Lato"  y="17">M_hall</text><text text-decoration="none" x="40.5" fill="#4b4b4b" font-size="10pt" font-family="noto_regular"  y="17"></text></g></g><g id="2cga5hqgle"><g><path d="M 530,295 L 415,335" fill="none" stroke="#a0a0a0" stroke-width="1.5" stroke-linecap="round" stroke-linejoin="round"/></g></g><g id="21m5gp9sqk"><g><path d="M 580,320 L 505,395" fill="none" stroke="#a0a0a0" stroke-width="1.5" stroke-linecap="round" stroke-linejoin="round"/></g></g><g id="7583wtwrbg"><g><path d="M 580,270 L 540,210" fill="none" stroke="#a0a0a0" stroke-width="1.5" stroke-linecap="round" stroke-linejoin="round"/></g></g><g id="ctzd7210u2"><g transform="translate(1075 320)"><rect x="0" y="0" width="100" height="50" fill="rgba(255,255,255,1)" stroke="#75c19b" stroke-width="1.5" stroke-linecap="round" stroke-linejoin="round"/></g><g transform="translate(1098.5, 335.5) rotate(0, 26.5, 9.5)" width="53" height="19"><text text-decoration="none" x="2" fill="rgb(75, 75, 75)" font-size="10pt" font-family="Lato"  y="17">Booking</text><text text-decoration="none" x="51" fill="#4b4b4b" font-size="10pt" font-family="noto_regular"  y="17"></text></g></g><g id="2e2dhebfcu"><g transform="translate(950 205)"><ellipse cx="50" cy="25" rx="50" ry="25" fill="rgba(255,255,255,1)" stroke="#f6902a" stroke-width="1.5" stroke-linecap="round" stroke-linejoin="round"/></g><g transform="translate(986, 220.5) rotate(0, 14, 9.5)" width="28" height="19"><text text-decoration="underline" x="1.5" fill="rgb(75, 75, 75)" font-size="10pt" font-family="Lato"  y="17">B_id</text><text text-decoration="none" x="26.5" fill="#4b4b4b" font-size="10pt" font-family="noto_regular"  y="17"></text></g></g><g id="3x7wzs2z6f"><g transform="translate(1175 185)"><ellipse cx="50" cy="25" rx="50" ry="25" fill="rgba(255,255,255,1)" stroke="#f6902a" stroke-width="1.5" stroke-linecap="round" stroke-linejoin="round"/></g><g transform="translate(1202.5, 200.5) rotate(0, 22.5, 9.5)" width="45" height="19"><text text-decoration="none" x="2" fill="rgb(75, 75, 75)" font-size="10pt" font-family="Lato"  y="17">B_date</text><text text-decoration="none" x="43" fill="#4b4b4b" font-size="10pt" font-family="noto_regular"  y="17"></text></g></g><g id="3867scs1rv"><g transform="translate(1275 235)"><ellipse cx="50" cy="25" rx="50" ry="25" fill="rgba(255,255,255,1)" stroke="#f6902a" stroke-width="1.5" stroke-linecap="round" stroke-linejoin="round"/></g><g transform="translate(1296.5, 250.5) rotate(0, 28.5, 9.5)" width="57" height="19"><text text-decoration="none" x="3" fill="rgb(75, 75, 75)" font-size="10pt" font-family="Lato"  y="17">B_movie</text><text text-decoration="none" x="54" fill="#4b4b4b" font-size="10pt" font-family="noto_regular"  y="17"></text></g></g><g id="k28l8f3avg"><g transform="translate(1310 305)"><ellipse cx="50" cy="25" rx="50" ry="25" fill="rgba(255,255,255,1)" stroke="#f6902a" stroke-width="1.5" stroke-linecap="round" stroke-linejoin="round"/></g><g transform="translate(1340, 320.5) rotate(0, 20, 9.5)" width="40" height="19"><text text-decoration="none" x="2.5" fill="rgb(75, 75, 75)" font-size="10pt" font-family="Lato"  y="17">B_hall</text><text text-decoration="none" x="37.5" fill="#4b4b4b" font-size="10pt" font-family="noto_regular"  y="17"></text></g></g><g id="23imo97yvd"><g transform="translate(1330 375)"><ellipse cx="50" cy="25" rx="50" ry="25" fill="rgba(255,255,255,1)" stroke="#f6902a" stroke-width="1.5" stroke-linecap="round" stroke-linejoin="round"/></g><g transform="translate(1354.5, 390.5) rotate(0, 25.5, 9.5)" width="51" height="19"><text text-decoration="none" x="3" fill="rgb(75, 75, 75)" font-size="10pt" font-family="Lato"  y="17">B_seats</text><text text-decoration="none" x="48" fill="#4b4b4b" font-size="10pt" font-family="noto_regular"  y="17"></text></g></g><g id="244xhxjhax"><g transform="translate(1275 440)"><ellipse cx="50" cy="25" rx="50" ry="25" fill="rgba(255,255,255,1)" stroke="#f6902a" stroke-width="1.5" stroke-linecap="round" stroke-linejoin="round"/></g><g transform="translate(1295, 455.5) rotate(0, 30, 9.5)" width="60" height="19"><text text-decoration="none" x="2" fill="rgb(75, 75, 75)" font-size="10pt" font-family="Lato"  y="17">B_person</text><text text-decoration="none" x="58" fill="#4b4b4b" font-size="10pt" font-family="noto_regular"  y="17"></text></g></g><g id="9hamau02vo"><g transform="translate(1225 490)"><ellipse cx="50" cy="25" rx="50" ry="25" fill="rgba(255,255,255,1)" stroke="#f6902a" stroke-width="1.5" stroke-linecap="round" stroke-linejoin="round"/></g><g transform="translate(1252.5, 505.5) rotate(0, 22.5, 9.5)" width="45" height="19"><text text-decoration="none" x="3" fill="rgb(75, 75, 75)" font-size="10pt" font-family="Lato"  y="17">B_mail</text><text text-decoration="none" x="42" fill="#4b4b4b" font-size="10pt" font-family="noto_regular"  y="17"></text></g></g><g id="7r5bzppu88"><g transform="translate(1065 185)"><ellipse cx="50" cy="25" rx="50" ry="25" fill="rgba(255,255,255,1)" stroke="#f6902a" stroke-width="1.5" stroke-linecap="round" stroke-linejoin="round"/></g><g transform="translate(1092, 200.5) rotate(0, 23, 9.5)" width="46" height="19"><text text-decoration="none" x="2.5" fill="rgb(75, 75, 75)" font-size="10pt" font-family="Lato"  y="17">B_time</text><text text-decoration="none" x="43.5" fill="#4b4b4b" font-size="10pt" font-family="noto_regular"  y="17"></text></g></g><g id="2p5hcp0bmk"><g><path d="M 1125,320 L 1015,255" fill="none" stroke="#a0a0a0" stroke-width="1.5" stroke-linecap="round" stroke-linejoin="round"/></g></g><g id="1m711o18em"><g><path d="M 1125,320 L 1130,235" fill="none" stroke="#a0a0a0" stroke-width="1.5" stroke-linecap="round" stroke-linejoin="round"/></g></g><g id="17jk5pivbe"><g><path d="M 1125,320 L 1210,235" fill="none" stroke="#a0a0a0" stroke-width="1.5" stroke-linecap="round" stroke-linejoin="round"/></g></g><g id="1jy1ok8p8f"><g><path d="M 1125,320 L 1275,260" fill="none" stroke="#a0a0a0" stroke-width="1.5" stroke-linecap="round" stroke-linejoin="round"/></g></g><g id="2i3u8631fe"><g><path d="M 1175,345 L 1310,330" fill="none" stroke="#a0a0a0" stroke-width="1.5" stroke-linecap="round" stroke-linejoin="round"/></g></g><g id="1qxjjptvo1"><g><path d="M 1175,345 L 1330,400" fill="none" stroke="#a0a0a0" stroke-width="1.5" stroke-linecap="round" stroke-linejoin="round"/></g></g><g id="1xe1v5o7b0"><g><path d="M 1175,345 L 1295,445" fill="none" stroke="#a0a0a0" stroke-width="1.5" stroke-linecap="round" stroke-linejoin="round"/></g></g><g id="1manwpyn7p"><g><path d="M 1175,345 L 1245,495" fill="none" stroke="#a0a0a0" stroke-width="1.5" stroke-linecap="round" stroke-linejoin="round"/></g></g><g id="a1q6btho0k"><g transform="translate(795 320)"><path d="M 150.00102162361145,37.50025391578674 L 75.00051081180573,75.00050783157349 L 0,37.50025391578674 L 75.00051081180573,0 L 150.00102162361145,37.50025391578674 L 150.00102162361145,37.50025391578674 Z" fill="rgba(255,255,255,1)" stroke="#75c19b" stroke-width="1.5" stroke-linecap="round" stroke-linejoin="round"/></g><g transform="translate(820.5005108118057, 348.00025391578674) rotate(0, 49.5, 9.5)" width="99" height="19"><text text-decoration="none" x="3.5" fill="rgb(75, 75, 75)" font-size="10pt" font-family="Lato"  y="17">Movie_Booking</text><text text-decoration="none" x="95.5" fill="#4b4b4b" font-size="10pt" font-family="noto_regular"  y="17"></text></g></g><g id="20x0gn5fjf"><mask id="d3d24" x="617" y="282" width="191" height="91" maskUnits="userSpaceOnUse"><rect x="617" y="282" width="191" height="91" fill="white" /><rect x="708.5" y="312" width="14" height="25" fill="black" /></mask><g mask="url(#d3d24)"><path d="M 630,295 L 715.5,295 L 715.5,327.5 L 715.5,360 L 795,360" fill="none" stroke="#a0a0a0" stroke-width="1.5" stroke-linecap="round" stroke-linejoin="round"/></g><g transform="translate(711.5, 315)" width="8" height="19"><text text-decoration="none" x="0.5" fill="rgb(75, 75, 75)" font-weight="bold" font-size="9pt" font-family="Arial"  y="17">1</text><text text-decoration="none" x="7.5" fill="#4b4b4b" font-size="10pt" font-family="noto_regular"  y="17"></text></g></g><g id="1zivz0bsde"><mask id="686cb" x="932" y="332" width="156" height="41" maskUnits="userSpaceOnUse"><rect x="932" y="332" width="156" height="41" fill="white" /><rect x="1002.0005108118057" y="340.0005108118057" width="16" height="25" fill="black" /></mask><g mask="url(#686cb)"><path d="M 945,360 L 1010.0005108118057,360 L 1010.0005108118057,352.5 L 1010.0005108118057,345 L 1075,345" fill="none" stroke="#a0a0a0" stroke-width="1.5" stroke-linecap="round" stroke-linejoin="round"/></g><g transform="translate(1005.0005108118057, 343.0005108118057)" width="10" height="19"><text text-decoration="none" x="0" fill="rgb(75, 75, 75)" font-weight="bold" font-size="9pt" font-family="Arial"  y="17">N</text><text text-decoration="none" x="10" fill="#4b4b4b" font-size="10pt" font-family="noto_regular"  y="17"></text></g></g><g id="19joh1pn0w"><g transform="translate(830 540)"><path d="M 155.00105619430542,35.000234842300415 L 77.50052809715271,70.00046968460083 L 0,35.000234842300415 L 77.50052809715271,0 L 155.00105619430542,35.000234842300415 L 155.00105619430542,35.000234842300415 Z" fill="rgba(255,255,255,1)" stroke="#75c19b" stroke-width="1.5" stroke-linecap="round" stroke-linejoin="round"/></g><g transform="translate(853.0005280971527, 565.5002348423004) rotate(0, 54.5, 9.5)" width="109" height="19"><text text-decoration="none" x="3.5" fill="rgb(75, 75, 75)" font-size="10pt" font-family="Lato"  y="17">Customer_Movie</text><text text-decoration="none" x="105.5" fill="#4b4b4b" font-size="10pt" font-family="noto_regular"  y="17"></text></g></g><g id="9s6gdkq251"><mask id="41e8f" x="557" y="562" width="286" height="396" maskUnits="userSpaceOnUse"><rect x="557" y="562" width="286" height="396" fill="white" /><rect x="692" y="747.5" width="16" height="25" fill="black" /></mask><g mask="url(#41e8f)"><path d="M 830,575 L 700,575 L 700,760 L 700,945 L 570,945" fill="none" stroke="#a0a0a0" stroke-width="1.5" stroke-linecap="round" stroke-linejoin="round"/></g><g transform="translate(695, 750.5)" width="10" height="19"><text text-decoration="none" x="0" fill="rgb(75, 75, 75)" font-weight="bold" font-size="9pt" font-family="Arial"  y="17">N</text><text text-decoration="none" x="10" fill="#4b4b4b" font-size="10pt" font-family="noto_regular"  y="17"></text></g></g><g id="wbi07iztn6"><mask id="f1022" x="567" y="307" width="356" height="246" maskUnits="userSpaceOnUse"><rect x="567" y="307" width="356" height="246" fill="white" /><rect x="737" y="417.5" width="16" height="25" fill="black" /></mask><g mask="url(#f1022)"><path d="M 910,540 L 910,430 L 745,430 L 580,430 L 580,320" fill="none" stroke="#a0a0a0" stroke-width="1.5" stroke-linecap="round" stroke-linejoin="round"/></g><g transform="translate(740, 420.5)" width="10" height="19"><text text-decoration="none" x="0" fill="rgb(75, 75, 75)" font-weight="bold" font-size="9pt" font-family="Arial"  y="17">N</text><text text-decoration="none" x="10" fill="#4b4b4b" font-size="10pt" font-family="noto_regular"  y="17"></text></g></g><g id="78x6hqbcoi"><g transform="translate(1055 510)"><path d="M 155.01551508903503,40.00408887863159 L 77.50775754451752,80.00817775726318 L 0,40.00408887863159 L 77.50775754451752,0 L 155.01551508903503,40.00408887863159 L 155.01551508903503,40.00408887863159 Z" fill="rgba(255,255,255,1)" stroke="#75c19b" stroke-width="1.5" stroke-linecap="round" stroke-linejoin="round"/></g><g transform="translate(1074.0077575445175, 540.5040888786316) rotate(0, 58.5, 9.5)" width="117" height="19"><text text-decoration="none" x="4" fill="rgb(75, 75, 75)" font-size="10pt" font-family="Lato"  y="17">Booking_Payment</text><text text-decoration="none" x="113" fill="#4b4b4b" font-size="10pt" font-family="noto_regular"  y="17"></text></g></g><g id="16n0vwtdku"><mask id="bb4f1" x="1112" y="357" width="36" height="166" maskUnits="userSpaceOnUse"><rect x="1112" y="357" width="36" height="166" fill="white" /><rect x="1123" y="427.5" width="14" height="25" fill="black" /></mask><g mask="url(#bb4f1)"><path d="M 1135,510 L 1135,440 L 1130,440 L 1125,440 L 1125,370" fill="none" stroke="#a0a0a0" stroke-width="1.5" stroke-linecap="round" stroke-linejoin="round"/></g><g transform="translate(1126, 430.5)" width="8" height="19"><text text-decoration="none" x="0.5" fill="rgb(75, 75, 75)" font-weight="bold" font-size="9pt" font-family="Arial"  y="17">1</text><text text-decoration="none" x="7.5" fill="#4b4b4b" font-size="10pt" font-family="noto_regular"  y="17"></text></g></g><g id="dmyb3k7dyu"><mask id="154c1" x="1122" y="577" width="36" height="146" maskUnits="userSpaceOnUse"><rect x="1122" y="577" width="36" height="146" fill="white" /><rect x="1132.9959111213684" y="637.5040888786316" width="14" height="25" fill="black" /></mask><g mask="url(#154c1)"><path d="M 1135,590 L 1135,650.0040888786316 L 1140,650.0040888786316 L 1145,650.0040888786316 L 1145,710" fill="none" stroke="#a0a0a0" stroke-width="1.5" stroke-linecap="round" stroke-linejoin="round"/></g><g transform="translate(1135.9959111213684, 640.5040888786316)" width="8" height="19"><text text-decoration="none" x="0.5" fill="rgb(75, 75, 75)" font-weight="bold" font-size="9pt" font-family="Arial"  y="17">1</text><text text-decoration="none" x="7.5" fill="#4b4b4b" font-size="10pt" font-family="noto_regular"  y="17"></text></g></g></svg>