<svg xmlns="http://www.w3.org/2000/svg" xmlns:svg="http://www.w3.org/2000/svg" xmlns:xlink="http://www.w3.org/1999/xlink" version="1.0" height="1350pt" width="1189.9999999999998pt" viewBox="275 7 1197.9999999999998 1356" ><defs><style type="text/css">
            @font-face {
                font-family: 'lt_regular';
                src: url('https://app.creately.com/diagram/assets/fonts/lato/lt-regular-webfont.woff2') format('woff2'),
                    url('https://app.creately.com/diagram/assets/fonts/lato/lt-regular-webfont.woff') format('woff');
                font-weight: normal;
                font-style: normal;
            }
            @font-face {
                font-family: 'noto_regular';
                src: url('https://app.creately.com/diagram/assets/fonts/noto/noto-regular.woff') format('woff'),
                     url('https://app.creately.com/diagram/assets/fonts/noto/noto-regular.woff2') format('woff2');
                font-weight: normal;
                font-style: normal;
            }
        p {
            margin: 0;
        }
        </style></defs><defs><style>
            span{ display: inline-block; }
        </style></defs><g id="tp3RuHGUNnk"><g transform="translate(280 10)"><rect x="0" y="0" width="1189.9999999999998" height="1349.9999999999998" fill="rgb(233,228,232)" stroke="#e9e4e8" stroke-width="2" stroke-linecap="round" stroke-linejoin="round" stroke-dasharray="0 0"/></g></g><g id="xpmEywQ2FdZ"><g transform="translate(350 119.53125000000001)"><rect x="0" y="0" width="112.76595744680844" height="29" fill="rgb(65,90,95)" stroke="#415a5f" stroke-width="2" stroke-linecap="round" stroke-linejoin="round" stroke-dasharray="0 0"/><path d="M 56.38297872340422,29 L 56.38297872340422,1164.3750000000002" fill="rgb(65,90,95)" stroke="#415a5f" stroke-width="2" stroke-linecap="round" stroke-linejoin="round" stroke-dasharray="3 3"/><rect x="0" y="0" width="112.76595744680844" height="1164.3750000000002" fill="rgba(255,255,255,0.01)" stroke="rgba(255,255,255,0.01)" stroke-width="2" stroke-linecap="round" stroke-linejoin="round" stroke-dasharray="3 3"/></g><g transform="translate(387.3829787234042, 124.53125000000001) rotate(0, 19, 0)" width="38" height="19"><text text-decoration="none" x="0.5" fill="#ffffff" font-size="10pt" font-family="lt_regular"  y="17">Admin</text><text text-decoration="none" x="37.5" fill="#4b4b4b" font-size="10pt" font-family="noto_regular"  y="17"></text></g></g><g id="Ib3hd5J5Dpo"><g transform="translate(541.7021276595744 119.53125000000017)"><rect x="0" y="0" width="98.29787234042546" height="47" fill="rgb(65,90,95)" stroke="#415a5f" stroke-width="2" stroke-linecap="round" stroke-linejoin="round" stroke-dasharray="0 0"/><path d="M 49.14893617021273,47 L 49.14893617021273,1160.46875" fill="rgb(65,90,95)" stroke="#415a5f" stroke-width="2" stroke-linecap="round" stroke-linejoin="round" stroke-dasharray="3 3"/><rect x="0" y="0" width="98.29787234042546" height="1160.46875" fill="rgba(255,255,255,0.01)" stroke="rgba(255,255,255,0.01)" stroke-width="2" stroke-linecap="round" stroke-linejoin="round" stroke-dasharray="3 3"/></g><g transform="translate(559.8510638297871, 124.53125000000017) rotate(0, 31, 0)" width="62" height="37"><text text-decoration="none" x="0" fill="#ffffff" font-size="10pt" font-family="lt_regular"  y="14">Registered&#160;</text><text text-decoration="none" x="17" fill="#ffffff" font-size="10pt" font-family="lt_regular"  y="36">User</text><text text-decoration="none" x="45" fill="#4b4b4b" font-size="10pt" font-family="noto_regular"  y="36"></text></g></g><g id="Ci3jx94Vqta"><g transform="translate(733.404255319149 119.53125)"><rect x="0" y="0" width="116.5957446808509" height="29" fill="rgb(65,90,95)" stroke="#415a5f" stroke-width="2" stroke-linecap="round" stroke-linejoin="round" stroke-dasharray="0 0"/><path d="M 58.29787234042545,29 L 58.29787234042545,1240.46875" fill="rgb(65,90,95)" stroke="#415a5f" stroke-width="2" stroke-linecap="round" stroke-linejoin="round" stroke-dasharray="3 3"/><rect x="0" y="0" width="116.5957446808509" height="1240.46875" fill="rgba(255,255,255,0.01)" stroke="rgba(255,255,255,0.01)" stroke-width="2" stroke-linecap="round" stroke-linejoin="round" stroke-dasharray="3 3"/></g><g transform="translate(772.7021276595744, 124.53125) rotate(0, 19, 0)" width="38" height="19"><text text-decoration="none" x="0" fill="#ffffff" font-size="10pt" font-family="lt_regular"  y="17">Visitor</text><text text-decoration="none" x="38" fill="#4b4b4b" font-size="10pt" font-family="noto_regular"  y="17"></text></g></g><g id="Grq0pCzR07k"><g transform="translate(913.8297872340423 119.53125000000001)"><rect x="0" y="0" width="112.76595744680844" height="29" fill="rgb(65,90,95)" stroke="#415a5f" stroke-width="2" stroke-linecap="round" stroke-linejoin="round" stroke-dasharray="0 0"/><path d="M 56.38297872340422,29 L 56.38297872340422,1164.3750000000002" fill="rgb(65,90,95)" stroke="#415a5f" stroke-width="2" stroke-linecap="round" stroke-linejoin="round" stroke-dasharray="3 3"/><rect x="0" y="0" width="112.76595744680844" height="1164.3750000000002" fill="rgba(255,255,255,0.01)" stroke="rgba(255,255,255,0.01)" stroke-width="2" stroke-linecap="round" stroke-linejoin="round" stroke-dasharray="3 3"/></g><g transform="translate(949.2127659574464, 124.53125000000001) rotate(0, 21, 0)" width="42" height="19"><text text-decoration="none" x="0" fill="#ffffff" font-size="10pt" font-family="lt_regular"  y="17">Movies</text><text text-decoration="none" x="42" fill="#4b4b4b" font-size="10pt" font-family="noto_regular"  y="17"></text></g></g><g id="PHy71TT9pf9"><g transform="translate(1105.5319148936169 119.53125000000001)"><rect x="0" y="0" width="112.76595744680844" height="29" fill="rgb(65,90,95)" stroke="#415a5f" stroke-width="2" stroke-linecap="round" stroke-linejoin="round" stroke-dasharray="0 0"/><path d="M 56.38297872340422,29 L 56.38297872340422,1164.3750000000002" fill="rgb(65,90,95)" stroke="#415a5f" stroke-width="2" stroke-linecap="round" stroke-linejoin="round" stroke-dasharray="3 3"/><rect x="0" y="0" width="112.76595744680844" height="1164.3750000000002" fill="rgba(255,255,255,0.01)" stroke="rgba(255,255,255,0.01)" stroke-width="2" stroke-linecap="round" stroke-linejoin="round" stroke-dasharray="3 3"/></g><g transform="translate(1127.414893617021, 124.53125000000001) rotate(0, 34.5, 0)" width="69" height="19"><text text-decoration="none" x="0.5" fill="#ffffff" font-size="10pt" font-family="lt_regular"  y="17">Book&#160;</text><text text-decoration="none" x="32.5" fill="#ffffff" font-size="10pt" font-family="lt_regular"  y="17">Ticket</text><text text-decoration="none" x="68.5" fill="#4b4b4b" font-size="10pt" font-family="noto_regular"  y="17"></text></g></g><g id="fCTVc7yjej6"><g transform="translate(1297.2340425531916 119.53125000000001)"><rect x="0" y="0" width="112.76595744680844" height="29" fill="rgb(65,90,95)" stroke="#415a5f" stroke-width="2" stroke-linecap="round" stroke-linejoin="round" stroke-dasharray="0 0"/><path d="M 56.38297872340422,29 L 56.38297872340422,1164.3750000000002" fill="rgb(65,90,95)" stroke="#415a5f" stroke-width="2" stroke-linecap="round" stroke-linejoin="round" stroke-dasharray="3 3"/><rect x="0" y="0" width="112.76595744680844" height="1164.3750000000002" fill="rgba(255,255,255,0.01)" stroke="rgba(255,255,255,0.01)" stroke-width="2" stroke-linecap="round" stroke-linejoin="round" stroke-dasharray="3 3"/></g><g transform="translate(1328.1170212765958, 124.53125000000001) rotate(0, 25.5, 0)" width="51" height="19"><text text-decoration="none" x="0" fill="#ffffff" font-size="10pt" font-family="lt_regular"  y="17">Payment</text><text text-decoration="none" x="51" fill="#4b4b4b" font-size="10pt" font-family="noto_regular"  y="17"></text></g></g><g id="nQT2ENtqY7K"><g transform="translate(959.9999999999999 190.00000000000003)"><rect x="0" y="0" width="20" height="70.00000000000001" fill="rgb(222,132,106)" stroke="#de846a" stroke-width="2" stroke-linecap="round" stroke-linejoin="round" stroke-dasharray="0 0"/></g></g><g id="6qI9axIj0Fw"><g transform="translate(959.9999999999999 279.99999999999994)"><rect x="0" y="0" width="20" height="70.00000000000001" fill="rgb(222,132,106)" stroke="#de846a" stroke-width="2" stroke-linecap="round" stroke-linejoin="round" stroke-dasharray="0 0"/></g></g><g id="dAQCipxDqrR"><g transform="translate(959.9999999999999 370)"><rect x="0" y="0" width="20" height="70.00000000000001" fill="rgb(222,132,106)" stroke="#de846a" stroke-width="2" stroke-linecap="round" stroke-linejoin="round" stroke-dasharray="0 0"/></g></g><g id="Ddw9ph2otLi"><g transform="translate(959.9999999999999 459.99999999999994)"><rect x="0" y="0" width="20" height="70.00000000000001" fill="rgb(222,132,106)" stroke="#de846a" stroke-width="2" stroke-linecap="round" stroke-linejoin="round" stroke-dasharray="0 0"/></g></g><g id="nb8PWl0SOG2"><g transform="translate(589.9999999999999 590)"><rect x="0" y="0" width="20" height="70.00000000000001" fill="rgb(222,132,106)" stroke="#de846a" stroke-width="2" stroke-linecap="round" stroke-linejoin="round" stroke-dasharray="0 0"/></g></g><g id="BVliu2BTv5a"><g transform="translate(780.0000000000001 590.0000000000001)"><rect x="0" y="0" width="20" height="70.00000000000001" fill="rgb(241,181,122)" stroke="#f1b57a" stroke-width="2" stroke-linecap="round" stroke-linejoin="round" stroke-dasharray="0 0"/></g></g><g id="de3mwPbHUaX"><g transform="translate(1149.9999999999995 700)"><rect x="0" y="0" width="20" height="70.00000000000001" fill="rgb(241,181,122)" stroke="#f1b57a" stroke-width="2" stroke-linecap="round" stroke-linejoin="round" stroke-dasharray="0 0"/></g></g><g id="VbvNT4AySRE"><g transform="translate(1340 790.0000000000001)"><rect x="0" y="0" width="20" height="70.00000000000001" fill="rgb(222,132,106)" stroke="#de846a" stroke-width="2" stroke-linecap="round" stroke-linejoin="round" stroke-dasharray="0 0"/></g></g><g id="my3cAc5grbS"><g transform="translate(1150.0000000000005 920.0000000000001)"><rect x="0" y="0" width="20" height="70.00000000000001" fill="rgb(241,181,122)" stroke="#f1b57a" stroke-width="2" stroke-linecap="round" stroke-linejoin="round" stroke-dasharray="0 0"/></g></g><g id="06ar2bsTAB1"><g transform="translate(1340 1020.0000000000003)"><rect x="0" y="0" width="20" height="70.00000000000001" fill="rgb(222,132,106)" stroke="#de846a" stroke-width="2" stroke-linecap="round" stroke-linejoin="round" stroke-dasharray="0 0"/></g></g><g id="eKOb3PpwwFC"><g transform="translate(959.9999999999999 1140)"><rect x="0" y="0" width="20" height="70.00000000000001" fill="rgb(222,132,106)" stroke="#de846a" stroke-width="2" stroke-linecap="round" stroke-linejoin="round" stroke-dasharray="0 0"/></g></g><g id="LTwEWGrgwMs"><g transform="translate(580 1250)"><rect x="0" y="0" width="20" height="70.00000000000003" fill="rgb(222,132,106)" stroke="#de846a" stroke-width="2" stroke-linecap="round" stroke-linejoin="round" stroke-dasharray="0 0"/></g></g><g id="pf1xOLq0kqW"><mask id="0b08c" x="391" y="183" width="583" height="31" maskUnits="userSpaceOnUse"><rect x="391" y="183" width="583" height="31" fill="white" /><rect x="615.5" y="186" width="134" height="25" fill="black" /></mask><g mask="url(#0b08c)"><path d="M 960,200 L 405,197" fill="none" stroke="#2F2F2F" stroke-width="2" stroke-linecap="round" stroke-linejoin="round" stroke-dasharray="0 0"/><path d="M 960,200 L 951.3328438912188,194.20713613868796 L 951.2760637444982,205.70699596457013 Z" fill="rgb(47,47,47)" stroke="#2F2F2F" stroke-width="2" stroke-linecap="round" stroke-linejoin="round"/></g><g transform="translate(618.5, 189)" width="128" height="19"><text text-decoration="none" x="1.5" fill="#2F2F2F" font-size="10pt" font-family="lt_regular"  y="17">1:&#160;</text><text text-decoration="none" x="15.5" fill="#2F2F2F" font-size="10pt" font-family="lt_regular"  y="17">AddMovieRecords()</text><text text-decoration="none" x="126.5" fill="#4b4b4b" font-size="10pt" font-family="noto_regular"  y="17"></text></g></g><g id="RcPprVQXVAD"><mask id="ca712" x="391" y="226" width="583" height="28" maskUnits="userSpaceOnUse"><rect x="391" y="226" width="583" height="28" fill="white" /><rect x="630.4687500000002" y="227.5" width="95" height="25" fill="black" /></mask><g mask="url(#ca712)"><path d="M 960,240 L 405,240" fill="none" stroke="#2F2F2F" stroke-width="2" stroke-linecap="round" stroke-linejoin="round" stroke-dasharray="3 3"/><path d="M 405,240 L 411.9537328227919,246.50015994820177 M 405,240 L 411.9593093742763,233.50581086231008 Z" fill="rgb(255,255,255)" stroke="#2F2F2F" stroke-width="2" stroke-linecap="round" stroke-linejoin="round"/></g><g transform="translate(633.4687500000002, 230.5)" width="89" height="19"><text text-decoration="none" x="0" fill="#2F2F2F" font-size="10pt" font-family="lt_regular"  y="17">2:&#160;</text><text text-decoration="none" x="14" fill="#2F2F2F" font-size="10pt" font-family="lt_regular"  y="17">return&#160;</text><text text-decoration="none" x="53" fill="#2F2F2F" font-size="10pt" font-family="lt_regular"  y="17">Status</text><text text-decoration="none" x="89" fill="#4b4b4b" font-size="10pt" font-family="noto_regular"  y="17"></text></g></g><g id="u44mCR8Jp3p"><mask id="112e5" x="390" y="276" width="584" height="28" maskUnits="userSpaceOnUse"><rect x="390" y="276" width="584" height="28" fill="white" /><rect x="598.9687500000002" y="277.5" width="153" height="25" fill="black" /></mask><g mask="url(#112e5)"><path d="M 960,290 L 404,290" fill="none" stroke="#7E7E7E" stroke-width="2" stroke-linecap="round" stroke-linejoin="round"/><path d="M 960,290 L 951.306810697368,284.24627716358503 L 951.3018865491011,295.7462761093573 Z" fill="rgb(126,126,126)" stroke="#7E7E7E" stroke-width="2" stroke-linecap="round" stroke-linejoin="round"/></g><g transform="translate(601.9687500000002, 280.5)" width="147" height="19"><text text-decoration="none" x="1.5" fill="#4b4b4b" font-size="10pt" font-family="lt_regular"  y="17">3:&#160;</text><text text-decoration="none" x="15.5" fill="#4b4b4b" font-size="10pt" font-family="lt_regular"  y="17">UpdateMovieRecords()</text><text text-decoration="none" x="145.5" fill="#4b4b4b" font-size="10pt" font-family="noto_regular"  y="17"></text></g></g><g id="M9Chz6iOG1c"><mask id="a160e" x="390" y="315" width="584" height="29" maskUnits="userSpaceOnUse"><rect x="390" y="315" width="584" height="29" fill="white" /><rect x="587.552590862018" y="316.9155622137806" width="95" height="25" fill="black" /></mask><g mask="url(#a160e)"><path d="M 960,330 L 404,329" fill="none" stroke="#2F2F2F" stroke-width="2" stroke-linecap="round" stroke-linejoin="round" stroke-dasharray="3 3"/><path d="M 404,329 L 410.93910215757523,335.51577629831735 M 404,329 L 410.973891458056,322.52147258597813 Z" fill="rgb(255,255,255)" stroke="#2F2F2F" stroke-width="2" stroke-linecap="round" stroke-linejoin="round"/></g><g transform="translate(590.552590862018, 319.9155622137806)" width="89" height="19"><text text-decoration="none" x="0" fill="#2F2F2F" font-size="10pt" font-family="lt_regular"  y="17">4:&#160;</text><text text-decoration="none" x="14" fill="#2F2F2F" font-size="10pt" font-family="lt_regular"  y="17">return&#160;</text><text text-decoration="none" x="53" fill="#2F2F2F" font-size="10pt" font-family="lt_regular"  y="17">Status</text><text text-decoration="none" x="89" fill="#4b4b4b" font-size="10pt" font-family="noto_regular"  y="17"></text></g></g><g id="sA8E0g6xmtD"><mask id="987e1" x="393" y="365" width="581" height="29" maskUnits="userSpaceOnUse"><rect x="393" y="365" width="581" height="29" fill="white" /><rect x="603.4647294013522" y="366.9899904690802" width="149" height="25" fill="black" /></mask><g mask="url(#987e1)"><path d="M 960,380 L 407,379" fill="none" stroke="#7E7E7E" stroke-width="2" stroke-linecap="round" stroke-linejoin="round"/><path d="M 960,380 L 951.3197953304434,374.22670686485725 L 951.2889628281761,385.72666553247007 Z" fill="rgb(126,126,126)" stroke="#7E7E7E" stroke-width="2" stroke-linecap="round" stroke-linejoin="round"/></g><g transform="translate(606.4647294013522, 369.9899904690802)" width="143" height="19"><text text-decoration="none" x="1" fill="#4b4b4b" font-size="10pt" font-family="lt_regular"  y="17">5:&#160;</text><text text-decoration="none" x="15" fill="#4b4b4b" font-size="10pt" font-family="lt_regular"  y="17">DeleteMovieRecords()</text><text text-decoration="none" x="142" fill="#4b4b4b" font-size="10pt" font-family="noto_regular"  y="17"></text></g></g><g id="zapJu9xgdy4"><mask id="2e28e" x="390" y="412" width="584" height="32" maskUnits="userSpaceOnUse"><rect x="390" y="412" width="584" height="32" fill="white" /><rect x="607.7312155689631" y="415.26785047171916" width="84" height="25" fill="black" /></mask><g mask="url(#2e28e)"><path d="M 960,430 L 404,426" fill="none" stroke="#2F2F2F" stroke-width="2" stroke-linecap="round" stroke-linejoin="round" stroke-dasharray="3 3"/><path d="M 404,426 L 410.9096006636031,432.5470526340113 M 404,426 L 411.0030827788566,419.55303861377615 Z" fill="rgb(255,255,255)" stroke="#2F2F2F" stroke-width="2" stroke-linecap="round" stroke-linejoin="round"/></g><g transform="translate(610.7312155689631, 418.26785047171916)" width="78" height="19"><text text-decoration="none" x="0.5" fill="#2F2F2F" font-size="10pt" font-family="lt_regular"  y="17">6:&#160;</text><text text-decoration="none" x="14.5" fill="#2F2F2F" font-size="10pt" font-family="lt_regular"  y="17">return&#160;</text><text text-decoration="none" x="53.5" fill="#2F2F2F" font-size="10pt" font-family="lt_regular"  y="17">void</text><text text-decoration="none" x="77.5" fill="#4b4b4b" font-size="10pt" font-family="noto_regular"  y="17"></text></g></g><g id="Ypgmjuj3tW5"><mask id="696f3" x="577" y="453" width="397" height="31" maskUnits="userSpaceOnUse"><rect x="577" y="453" width="397" height="31" fill="white" /><rect x="724.5" y="456" width="102" height="25" fill="black" /></mask><g mask="url(#696f3)"><path d="M 960,470 L 591,467" fill="none" stroke="#7E7E7E" stroke-width="2" stroke-linecap="round" stroke-linejoin="round"/><path d="M 960,470 L 951.3457756277646,464.1878345477193 L 951.2633665660801,475.6875392720395 Z" fill="rgb(126,126,126)" stroke="#7E7E7E" stroke-width="2" stroke-linecap="round" stroke-linejoin="round"/></g><g transform="translate(727.5, 459)" width="96" height="19"><text text-decoration="none" x="1.5" fill="#4b4b4b" font-size="10pt" font-family="lt_regular"  y="17">7:&#160;</text><text text-decoration="none" x="15.5" fill="#4b4b4b" font-size="10pt" font-family="lt_regular"  y="17">ShowMovies()</text><text text-decoration="none" x="94.5" fill="#4b4b4b" font-size="10pt" font-family="noto_regular"  y="17"></text></g></g><g id="8U2gxiryn5h"><mask id="deb84" x="578" y="502" width="396" height="32" maskUnits="userSpaceOnUse"><rect x="578" y="502" width="396" height="32" fill="white" /><rect x="713.9982095771154" y="505.5445541837121" width="124" height="25" fill="black" /></mask><g mask="url(#deb84)"><path d="M 960,520 L 785.9196294158971,520 Q 783.9180152096153,520 776,518 Q 767.9927911660325,515.931483344307 765.9196301737284,515.9322904572402 L 592,516" fill="none" stroke="#2F2F2F" stroke-width="2" stroke-linecap="round" stroke-linejoin="round" stroke-dasharray="3 3"/><path d="M 592,516 L 598.9565217391304,522.4971751412429 M 592,516 L 598.9565217391304,509.50282485875704 Z" fill="rgb(255,255,255)" stroke="#2F2F2F" stroke-width="2" stroke-linecap="round" stroke-linejoin="round"/></g><g transform="translate(716.9982095771154, 508.5445541837121)" width="118" height="19"><text text-decoration="none" x="1" fill="#2F2F2F" font-size="10pt" font-family="lt_regular"  y="17">8:&#160;</text><text text-decoration="none" x="15" fill="#2F2F2F" font-size="10pt" font-family="lt_regular"  y="17">ReturnAllMovies()</text><text text-decoration="none" x="117" fill="#4b4b4b" font-size="10pt" font-family="noto_regular"  y="17"></text></g></g><g id="luvce2PdWcs"><mask id="624ae" x="579" y="548" width="65" height="86" maskUnits="userSpaceOnUse"><rect x="579" y="548" width="65" height="86" fill="white" /><rect x="600.5" y="570.0154572893201" width="59" height="25" fill="black" /></mask><g mask="url(#624ae)"><path d="M 610,620 L 629.9999999999999,620 L 630,595 L 629.9999999999999,570 L 621,570 L 612.9288814733038,570 L 613,566 L 612.9288814733038,562.0322101009003 L 593,562" fill="none" stroke="#7E7E7E" stroke-width="2" stroke-linecap="round" stroke-linejoin="round"/><path d="M 610,620 L 618.695652173913,625.75 L 618.695652173913,614.25 Z" fill="rgb(126,126,126)" stroke="#7E7E7E" stroke-width="2" stroke-linecap="round" stroke-linejoin="round"/></g><g transform="translate(603.5, 573.0154572893201)" width="53" height="19"><text text-decoration="none" x="1" fill="#4b4b4b" font-size="10pt" font-family="lt_regular"  y="17">9:&#160;</text><text text-decoration="none" x="15" fill="#4b4b4b" font-size="10pt" font-family="lt_regular"  y="17">Login()</text><text text-decoration="none" x="52" fill="#4b4b4b" font-size="10pt" font-family="noto_regular"  y="17"></text></g></g><g id="oFbAG50R2Fg"><mask id="fd10d" x="778" y="553" width="71" height="81" maskUnits="userSpaceOnUse"><rect x="778" y="553" width="71" height="81" fill="white" /><rect x="797.5" y="567.9822132325062" width="75" height="43" fill="black" /></mask><g mask="url(#fd10d)"><path d="M 800,620 L 835,620 L 835,595 L 835,570 L 832,570 L 829.2187500000002,570 L 829,569 L 829.2187500000002,567 L 792,567" fill="none" stroke="#7E7E7E" stroke-width="2" stroke-linecap="round" stroke-linejoin="round"/><path d="M 800,620 L 808.695652173913,625.75 L 808.695652173913,614.25 Z" fill="rgb(126,126,126)" stroke="#7E7E7E" stroke-width="2" stroke-linecap="round" stroke-linejoin="round"/></g><g transform="translate(800.5, 570.9822132325062)" width="69" height="37"><text text-decoration="none" x="12.5" fill="rgb(75, 75, 75)" font-size="10pt" font-family="lt_regular"  y="14">10:&#160;</text><text text-decoration="none" x="34.5" fill="rgb(75, 75, 75)" font-size="10pt" font-family="lt_regular"  y="14">Get</text><text text-decoration="none" x="56.5" fill="rgb(75, 75, 75)" font-size="10pt" font-family="lt_regular"  y="14"></text><text text-decoration="none" x="0.5" fill="rgb(75, 75, 75)" font-size="10pt" font-family="lt_regular"  y="36">Registered()</text><text text-decoration="none" x="68.5" fill="#4b4b4b" font-size="10pt" font-family="noto_regular"  y="36"></text></g></g><g id="d8HO6CBFc7B"><mask id="383ff" x="577" y="696" width="587" height="28" maskUnits="userSpaceOnUse"><rect x="577" y="696" width="587" height="28" fill="white" /><rect x="795.4047313583485" y="697.5" width="100" height="25" fill="black" /></mask><g mask="url(#383ff)"><path d="M 1150,710 L 591,710" fill="none" stroke="#7E7E7E" stroke-width="2" stroke-linecap="round" stroke-linejoin="round"/><path d="M 1150,710 L 1141.3013998640113,704.2544606516136 L 1141.3072980755894,715.7544591390526 Z" fill="rgb(126,126,126)" stroke="#7E7E7E" stroke-width="2" stroke-linecap="round" stroke-linejoin="round"/></g><g transform="translate(798.4047313583485, 700.5)" width="94" height="19"><text text-decoration="none" x="0.5" fill="#4b4b4b" font-size="10pt" font-family="lt_regular"  y="17">11:&#160;</text><text text-decoration="none" x="22.5" fill="#4b4b4b" font-size="10pt" font-family="lt_regular"  y="17">BookTicket()</text><text text-decoration="none" x="93.5" fill="#4b4b4b" font-size="10pt" font-family="noto_regular"  y="17"></text></g></g><g id="crchgltiCeb"><mask id="bca84" x="578" y="806" width="776" height="28" maskUnits="userSpaceOnUse"><rect x="578" y="806" width="776" height="28" fill="white" />undefinedundefinedundefined<rect x="849.9350186976761" y="807.5" width="118" height="25" fill="black" /></mask><g mask="url(#bca84)"><path d="M 1340,820 L 592,820" fill="none" stroke="#7E7E7E" stroke-width="2" stroke-linecap="round" stroke-linejoin="round"/><path d="M 1340,820 L 1331.3048545158388,814.2492338128776 L 1331.3038412038488,825.749233768234 Z" fill="rgb(126,126,126)" stroke="#7E7E7E" stroke-width="2" stroke-linecap="round" stroke-linejoin="round"/></g>undefinedundefinedundefined<g transform="translate(852.9350186976761, 810.5)" width="112" height="19"><text text-decoration="none" x="0.5" fill="#4b4b4b" font-size="10pt" font-family="lt_regular"  y="17">12:&#160;</text><text text-decoration="none" x="22.5" fill="#4b4b4b" font-size="10pt" font-family="lt_regular"  y="17">MakePayment()</text><text text-decoration="none" x="111.5" fill="#4b4b4b" font-size="10pt" font-family="noto_regular"  y="17"></text></g></g><g id="9Lmg0SJ9eiB"><mask id="e93e5" x="578" y="833" width="776" height="31" maskUnits="userSpaceOnUse"><rect x="578" y="833" width="776" height="31" fill="white" /><rect x="955.0760577223613" y="837.5000000000001" width="108" height="25" fill="black" /></mask><g mask="url(#e93e5)"><path d="M 1340,850 L 975.9196294158972,850.0000000000001 Q 974.9164048992565,850.0000000000001 966,849 Q 957.5797601168432,847.3341954791728 955.9196335942643,847.3326778711452 L 592,847" fill="none" stroke="#2F2F2F" stroke-width="2" stroke-linecap="round" stroke-linejoin="round" stroke-dasharray="3 3"/><path d="M 592,847 L 598.9565217391304,853.4971751412429 M 592,847 L 598.9565217391304,840.5028248587571 Z" fill="rgb(255,255,255)" stroke="#2F2F2F" stroke-width="2" stroke-linecap="round" stroke-linejoin="round"/></g><g transform="translate(958.0760577223613, 840.5000000000001)" width="102" height="19"><text text-decoration="none" x="1" fill="#2F2F2F" font-size="10pt" font-family="lt_regular"  y="17">13:&#160;</text><text text-decoration="none" x="23" fill="#2F2F2F" font-size="10pt" font-family="lt_regular"  y="17">Comfirmation</text><text text-decoration="none" x="101" fill="#4b4b4b" font-size="10pt" font-family="noto_regular"  y="17"></text></g></g><g id="p15vRQgQZxD"><mask id="1c651" x="578" y="913" width="586" height="31" maskUnits="userSpaceOnUse"><rect x="578" y="913" width="586" height="31" fill="white" /><rect x="756.8083686907775" y="914.5582669410697" width="113" height="25" fill="black" /></mask><g mask="url(#1c651)"><path d="M 1150,930 L 880.9196294158975,930.0000000000001 Q 879.9164048992567,930.0000000000001 871,929 Q 862.8478703170545,927.0713098966479 860.9196297624896,927.0708022218616 L 592,927" fill="none" stroke="#7E7E7E" stroke-width="2" stroke-linecap="round" stroke-linejoin="round"/><path d="M 1150,930 L 1141.304347826087,924.25 L 1141.304347826087,935.75 Z" fill="rgb(126,126,126)" stroke="#7E7E7E" stroke-width="2" stroke-linecap="round" stroke-linejoin="round"/></g><g transform="translate(759.8083686907775, 917.5582669410697)" width="107" height="19"><text text-decoration="none" x="0.5" fill="#4b4b4b" font-size="10pt" font-family="lt_regular"  y="17">14:&#160;</text><text text-decoration="none" x="22.5" fill="#4b4b4b" font-size="10pt" font-family="lt_regular"  y="17">return&#160;</text><text text-decoration="none" x="61.5" fill="#4b4b4b" font-size="10pt" font-family="lt_regular"  y="17">SeatNO</text><text text-decoration="none" x="106.5" fill="#4b4b4b" font-size="10pt" font-family="noto_regular"  y="17"></text></g></g><g id="SP5Gl8sek4H"><mask id="b5ca3" x="575" y="953" width="589" height="31" maskUnits="userSpaceOnUse"><rect x="575" y="953" width="589" height="31" fill="white" /><rect x="775.8048986486489" y="955.7930743243244" width="110" height="25" fill="black" /></mask><g mask="url(#b5ca3)"><path d="M 1150,970 L 589,967" fill="none" stroke="#2F2F2F" stroke-width="2" stroke-linecap="round" stroke-linejoin="round" stroke-dasharray="3 3"/><path d="M 589,967 L 595.9210211202976,973.534978666788 M 589,967 L 595.9918158730296,960.540821234814 Z" fill="rgb(255,255,255)" stroke="#2F2F2F" stroke-width="2" stroke-linecap="round" stroke-linejoin="round"/></g><g transform="translate(778.8048986486489, 958.7930743243244)" width="104" height="19"><text text-decoration="none" x="1" fill="#2F2F2F" font-size="10pt" font-family="lt_regular"  y="17">15:&#160;</text><text text-decoration="none" x="23" fill="#2F2F2F" font-size="10pt" font-family="lt_regular"  y="17">CancelTicket()</text><text text-decoration="none" x="103" fill="#4b4b4b" font-size="10pt" font-family="noto_regular"  y="17"></text></g></g><g id="90vrtuC98xN"><mask id="86e00" x="1153" y="1013" width="201" height="31" maskUnits="userSpaceOnUse"><rect x="1153" y="1013" width="201" height="31" fill="white" /><rect x="1166.2234127544298" y="1014.7074289294865" width="121" height="25" fill="black" /></mask><g mask="url(#86e00)"><path d="M 1340,1030 L 1263.359375,1030.0000000000005 Q 1262.2967601165046,1030.0000000000005 1253,1029 Q 1245.0970539173152,1027.2712435131048 1243.3594353136336,1027.2652084868027 L 1167,1027" fill="none" stroke="#7E7E7E" stroke-width="2" stroke-linecap="round" stroke-linejoin="round"/><path d="M 1167,1027 L 1175.695652173913,1032.75 L 1175.695652173913,1021.25 Z" fill="rgb(126,126,126)" stroke="#7E7E7E" stroke-width="2" stroke-linecap="round" stroke-linejoin="round"/></g><g transform="translate(1169.2234127544298, 1017.7074289294865)" width="115" height="19"><text text-decoration="none" x="1" fill="#4b4b4b" font-size="10pt" font-family="lt_regular"  y="17">16:&#160;</text><text text-decoration="none" x="23" fill="#4b4b4b" font-size="10pt" font-family="lt_regular"  y="17">RetunPayment()</text><text text-decoration="none" x="114" fill="#4b4b4b" font-size="10pt" font-family="noto_regular"  y="17"></text></g></g><g id="f8kcBKkBf3O"><mask id="d4bb9" x="1148" y="1053" width="206" height="31" maskUnits="userSpaceOnUse"><rect x="1148" y="1053" width="206" height="31" fill="white" /><rect x="1181.493643482505" y="1055.8229265755479" width="118" height="25" fill="black" /></mask><g mask="url(#d4bb9)"><path d="M 1340,1070 L 1162,1067" fill="none" stroke="#2F2F2F" stroke-width="2" stroke-linecap="round" stroke-linejoin="round" stroke-dasharray="3 3"/></g><g transform="translate(1184.493643482505, 1058.8229265755479)" width="112" height="19"><text text-decoration="none" x="0" fill="#2F2F2F" font-size="10pt" font-family="lt_regular"  y="17">17:&#160;</text><text text-decoration="none" x="22" fill="#2F2F2F" font-size="10pt" font-family="lt_regular"  y="17">return&#160;</text><text text-decoration="none" x="61" fill="#2F2F2F" font-size="10pt" font-family="lt_regular"  y="17">Payment</text><text text-decoration="none" x="112" fill="#4b4b4b" font-size="10pt" font-family="noto_regular"  y="17"></text></g></g><g id="TMhefW9EIjK"><mask id="ad9b5" x="775" y="1132" width="199" height="32" maskUnits="userSpaceOnUse"><rect x="775" y="1132" width="199" height="32" fill="white" /><rect x="779.6350783056901" y="1134.5323994925307" width="107" height="25" fill="black" /></mask><g mask="url(#ad9b5)"><path d="M 960,1150 L 789,1146" fill="none" stroke="#7E7E7E" stroke-width="2" stroke-linecap="round" stroke-linejoin="round"/><path d="M 960,1150 L 951.441192020883,1144.0482210469238 L 951.1722597396348,1155.5450760702813 Z" fill="rgb(126,126,126)" stroke="#7E7E7E" stroke-width="2" stroke-linecap="round" stroke-linejoin="round"/></g><g transform="translate(782.6350783056901, 1137.5323994925307)" width="101" height="19"><text text-decoration="none" x="1" fill="#4b4b4b" font-size="10pt" font-family="lt_regular"  y="17">19:&#160;</text><text text-decoration="none" x="23" fill="#4b4b4b" font-size="10pt" font-family="lt_regular"  y="17">ViewMovies()</text><text text-decoration="none" x="100" fill="#4b4b4b" font-size="10pt" font-family="noto_regular"  y="17"></text></g></g><g id="CaiAOpWrgxx"><mask id="ce4bc" x="577" y="1083" width="594" height="30" maskUnits="userSpaceOnUse"><rect x="577" y="1083" width="594" height="30" fill="white" /><rect x="815.130103383751" y="1086.1042181848961" width="118" height="25" fill="black" /></mask><g mask="url(#ce4bc)"><path d="M 1157,1099 L 884.2153251706143,1099 Q 883.1924053648132,1099 874,1098 Q 864.9505742432526,1097.2872775869025 864.2153306689178,1097.2865065755607 L 591,1097" fill="none" stroke="#2F2F2F" stroke-width="2" stroke-linecap="round" stroke-linejoin="round" stroke-dasharray="3 3"/><path d="M 591,1097 L 599.695652173913,1102.75 L 599.695652173913,1091.25 Z" fill="rgb(47,47,47)" stroke="#2F2F2F" stroke-width="2" stroke-linecap="round" stroke-linejoin="round"/></g><g transform="translate(818.130103383751, 1089.1042181848961)" width="112" height="19"><text text-decoration="none" x="0" fill="#2F2F2F" font-size="10pt" font-family="lt_regular"  y="17">18:&#160;</text><text text-decoration="none" x="22" fill="#2F2F2F" font-size="10pt" font-family="lt_regular"  y="17">return&#160;</text><text text-decoration="none" x="61" fill="#2F2F2F" font-size="10pt" font-family="lt_regular"  y="17">Payment</text><text text-decoration="none" x="112" fill="#4b4b4b" font-size="10pt" font-family="noto_regular"  y="17"></text></g></g><g id="egr5Jjg8pMB"><mask id="f7277" x="779" y="1182" width="195" height="32" maskUnits="userSpaceOnUse"><rect x="779" y="1182" width="195" height="32" fill="white" /><rect x="813.524894918153" y="1185.6991593452237" width="125" height="25" fill="black" /></mask><g mask="url(#f7277)"><path d="M 960,1200 L 886.25,1200 Q 884.2344355629253,1200 876,1198 Q 868.3640923820476,1195.910148856686 866.2500071070244,1195.9126693272844 L 793,1196" fill="none" stroke="#2F2F2F" stroke-width="2" stroke-linecap="round" stroke-linejoin="round" stroke-dasharray="3 3"/></g><g transform="translate(816.524894918153, 1188.6991593452237)" width="119" height="19"><text text-decoration="none" x="0.5" fill="#2F2F2F" font-size="10pt" font-family="lt_regular"  y="17">20:&#160;</text><text text-decoration="none" x="22.5" fill="#2F2F2F" font-size="10pt" font-family="lt_regular"  y="17">return&#160;</text><text text-decoration="none" x="61.5" fill="#2F2F2F" font-size="10pt" font-family="lt_regular"  y="17">AllMovies</text><text text-decoration="none" x="118.5" fill="#4b4b4b" font-size="10pt" font-family="noto_regular"  y="17"></text></g></g><g id="N94RC6iKKpT"><mask id="b45f8" x="577" y="1188" width="70" height="86" maskUnits="userSpaceOnUse"><rect x="577" y="1188" width="70" height="86" fill="white" /><rect x="588.5" y="1214.0063788520083" width="89" height="25" fill="black" /></mask><g mask="url(#b45f8)"><path d="M 600,1260 L 631.5625,1260 L 632,1245 L 631.5625,1230 L 632,1230 L 633,1230 L 633,1216 L 633,1202 L 591,1202" fill="none" stroke="#7E7E7E" stroke-width="2" stroke-linecap="round" stroke-linejoin="round"/><path d="M 600,1260 L 608.695652173913,1265.75 L 608.695652173913,1254.25 Z" fill="rgb(126,126,126)" stroke="#7E7E7E" stroke-width="2" stroke-linecap="round" stroke-linejoin="round"/></g><g transform="translate(591.5, 1217.0063788520083)" width="83" height="19"><text text-decoration="none" x="1" fill="#4b4b4b" font-size="10pt" font-family="lt_regular"  y="17">21:&#160;</text><text text-decoration="none" x="23" fill="#4b4b4b" font-size="10pt" font-family="lt_regular"  y="17">LoginOut()</text><text text-decoration="none" x="82" fill="#4b4b4b" font-size="10pt" font-family="noto_regular"  y="17"></text></g></g></svg>